<svg width="26" height="26" viewBox="0 0 26 26" fill="none" xmlns="http://www.w3.org/2000/svg">
<path d="M8.43994 7.38945V3.18945V7.38945ZM16.8399 7.38945V3.18945V7.38945ZM7.38994 11.5895H17.8899H7.38994ZM5.28994 22.0895H19.9899C20.5469 22.0895 21.081 21.8682 21.4749 21.4744C21.8687 21.0805 22.0899 20.5464 22.0899 19.9895V7.38945C22.0899 6.8325 21.8687 6.29836 21.4749 5.90453C21.081 5.5107 20.5469 5.28945 19.9899 5.28945H5.28994C4.73299 5.28945 4.19884 5.5107 3.80502 5.90453C3.41119 6.29836 3.18994 6.8325 3.18994 7.38945V19.9895C3.18994 20.5464 3.41119 21.0805 3.80502 21.4744C4.19884 21.8682 4.73299 22.0895 5.28994 22.0895Z" fill="none"/>
<path d="M8.43994 7.38945V3.18945M16.8399 7.38945V3.18945M7.38994 11.5895H17.8899M5.28994 22.0895H19.9899C20.5469 22.0895 21.081 21.8682 21.4749 21.4744C21.8687 21.0805 22.0899 20.5464 22.0899 19.9895V7.38945C22.0899 6.8325 21.8687 6.29836 21.4749 5.90453C21.081 5.5107 20.5469 5.28945 19.9899 5.28945H5.28994C4.73299 5.28945 4.19884 5.5107 3.80502 5.90453C3.41119 6.29836 3.18994 6.8325 3.18994 7.38945V19.9895C3.18994 20.5464 3.41119 21.0805 3.80502 21.4744C4.19884 21.8682 4.73299 22.0895 5.28994 22.0895Z" stroke="white" stroke-width="1.512" stroke-linecap="round" stroke-linejoin="round"/>
</svg>