<svg width="36" height="36" viewBox="0 0 36 36" fill="none" xmlns="http://www.w3.org/2000/svg">
<path d="M13.9821 9.96429V26.0357H9.16069C8.94757 26.0357 8.74318 25.9511 8.59248 25.8004C8.44178 25.6497 8.35712 25.4453 8.35712 25.2322V10.7679C8.35712 10.5547 8.44178 10.3504 8.59248 10.1997C8.74318 10.049 8.94757 9.96429 9.16069 9.96429H13.9821Z" fill="#1C1C1C" fill-opacity="0.1"/>
<path d="M26.8393 9.16071H9.16073C8.73449 9.16071 8.32571 9.33003 8.02431 9.63143C7.72291 9.93282 7.55359 10.3416 7.55359 10.7678V25.2321C7.55359 25.6584 7.72291 26.0672 8.02431 26.3686C8.32571 26.67 8.73449 26.8393 9.16073 26.8393H26.8393C27.2655 26.8393 27.6743 26.67 27.9757 26.3686C28.2771 26.0672 28.4464 25.6584 28.4464 25.2321V10.7678C28.4464 10.3416 28.2771 9.93282 27.9757 9.63143C27.6743 9.33003 27.2655 9.16071 26.8393 9.16071ZM9.16073 20.4107H10.7679C10.981 20.4107 11.1854 20.326 11.3361 20.1753C11.4868 20.0246 11.5714 19.8203 11.5714 19.6071C11.5714 19.394 11.4868 19.1896 11.3361 19.0389C11.1854 18.8882 10.981 18.8036 10.7679 18.8036H9.16073V17.1964H10.7679C10.981 17.1964 11.1854 17.1118 11.3361 16.9611C11.4868 16.8104 11.5714 16.606 11.5714 16.3928C11.5714 16.1797 11.4868 15.9753 11.3361 15.8246C11.1854 15.6739 10.981 15.5893 10.7679 15.5893H9.16073V13.9821H10.7679C10.981 13.9821 11.1854 13.8975 11.3361 13.7468C11.4868 13.5961 11.5714 13.3917 11.5714 13.1786C11.5714 12.9654 11.4868 12.7611 11.3361 12.6104C11.1854 12.4597 10.981 12.375 10.7679 12.375H9.16073V10.7678H13.1786V25.2321H9.16073V20.4107ZM26.8393 25.2321H14.7857V10.7678H26.8393V25.2321Z" fill="white"/>
</svg>
