<svg width="38" height="38" viewBox="0 0 38 38" fill="none" xmlns="http://www.w3.org/2000/svg">
<rect width="38" height="38" rx="8" fill="#F4F4F4"/>
<path d="M19.2855 20.6667C20.39 20.6667 21.2855 19.7712 21.2855 18.6667C21.2855 17.5621 20.39 16.6667 19.2855 16.6667C18.1809 16.6667 17.2855 17.5621 17.2855 18.6667C17.2855 19.7712 18.1809 20.6667 19.2855 20.6667Z" stroke="black"/>
<path d="M20.4621 12.1013C20.2175 12 19.9068 12 19.2855 12C18.6641 12 18.3535 12 18.1088 12.1013C17.9469 12.1683 17.7998 12.2666 17.6759 12.3905C17.5521 12.5144 17.4538 12.6615 17.3868 12.8233C17.3255 12.972 17.3008 13.146 17.2915 13.3987C17.2871 13.5813 17.2365 13.7598 17.1444 13.9176C17.0523 14.0753 16.9217 14.2071 16.7648 14.3007C16.6053 14.3898 16.4258 14.4371 16.2431 14.438C16.0604 14.439 15.8805 14.3935 15.7201 14.306C15.4961 14.1873 15.3341 14.122 15.1735 14.1007C14.823 14.0546 14.4686 14.1495 14.1881 14.3647C13.9788 14.5267 13.8228 14.7953 13.5121 15.3333C13.2015 15.8713 13.0455 16.14 13.0115 16.4033C12.9885 16.577 13.0001 16.7534 13.0454 16.9226C13.0907 17.0918 13.1689 17.2504 13.2755 17.3893C13.3741 17.5173 13.5121 17.6247 13.7261 17.7593C14.0415 17.9573 14.2441 18.2947 14.2441 18.6667C14.2441 19.0387 14.0415 19.376 13.7261 19.5733C13.5121 19.7087 13.3735 19.816 13.2755 19.944C13.1689 20.083 13.0907 20.2416 13.0454 20.4107C13.0001 20.5799 12.9885 20.7564 13.0115 20.93C13.0461 21.1927 13.2015 21.462 13.5115 22C13.8228 22.538 13.9781 22.8067 14.1881 22.9687C14.3271 23.0753 14.4857 23.1535 14.6549 23.1988C14.824 23.2441 15.0005 23.2556 15.1741 23.2327C15.3341 23.2113 15.4961 23.146 15.7201 23.0273C15.8805 22.9398 16.0604 22.8944 16.2431 22.8953C16.4258 22.8962 16.6053 22.9435 16.7648 23.0327C17.0868 23.2193 17.2781 23.5627 17.2915 23.9347C17.3008 24.188 17.3248 24.3613 17.3868 24.51C17.4538 24.6719 17.5521 24.819 17.6759 24.9428C17.7998 25.0667 17.9469 25.165 18.1088 25.232C18.3535 25.3333 18.6641 25.3333 19.2855 25.3333C19.9068 25.3333 20.2175 25.3333 20.4621 25.232C20.624 25.165 20.7711 25.0667 20.895 24.9428C21.0189 24.819 21.1171 24.6719 21.1841 24.51C21.2455 24.3613 21.2701 24.188 21.2795 23.9347C21.2928 23.5627 21.4841 23.2187 21.8061 23.0327C21.9656 22.9435 22.1451 22.8962 22.3278 22.8953C22.5105 22.8944 22.6904 22.9398 22.8508 23.0273C23.0748 23.146 23.2368 23.2113 23.3968 23.2327C23.5704 23.2556 23.7469 23.2441 23.9161 23.1988C24.0852 23.1535 24.2438 23.0753 24.3828 22.9687C24.5928 22.8073 24.7481 22.538 25.0588 22C25.3695 21.462 25.5255 21.1933 25.5595 20.93C25.5824 20.7564 25.5708 20.5799 25.5255 20.4107C25.4802 20.2416 25.4021 20.083 25.2955 19.944C25.1968 19.816 25.0588 19.7087 24.8448 19.574C24.6887 19.4789 24.5594 19.3458 24.4688 19.1871C24.3782 19.0285 24.3293 18.8494 24.3268 18.6667C24.3268 18.2947 24.5295 17.9573 24.8448 17.76C25.0588 17.6247 25.1975 17.5173 25.2955 17.3893C25.4021 17.2504 25.4802 17.0918 25.5255 16.9226C25.5708 16.7534 25.5824 16.577 25.5595 16.4033C25.5248 16.1407 25.3695 15.8713 25.0595 15.3333C24.7481 14.7953 24.5928 14.5267 24.3828 14.3647C24.2438 14.2581 24.0852 14.1799 23.9161 14.1346C23.7469 14.0893 23.5704 14.0778 23.3968 14.1007C23.2368 14.122 23.0748 14.1873 22.8501 14.306C22.6898 14.3934 22.51 14.4388 22.3274 14.4379C22.1449 14.4369 21.9655 14.3897 21.8061 14.3007C21.6492 14.2071 21.5186 14.0753 21.4265 13.9176C21.3344 13.7598 21.2838 13.5813 21.2795 13.3987C21.2701 13.1453 21.2461 12.972 21.1841 12.8233C21.1171 12.6615 21.0189 12.5144 20.895 12.3905C20.7711 12.2666 20.624 12.1683 20.4621 12.1013Z" stroke="black"/>
</svg>
